<?xml version="1.0" encoding="iso-8859-1"?>
<!-- Generator: Adobe Illustrator 19.0.0, SVG Export Plug-In . SVG Version: 6.00 Build 0)  -->
<svg version="1.1" id="Capa_1" xmlns="http://www.w3.org/2000/svg" xmlns:xlink="http://www.w3.org/1999/xlink" x="0px" y="0px"
	 viewBox="0 0 512 512" style="enable-background:new 0 0 512 512;" xml:space="preserve">
<path style="fill:#7A463D;" d="M152,288c-4.418,0-8-3.582-8-8V8c0-4.418,3.582-8,8-8s8,3.582,8,8v272
	C160,284.418,156.418,288,152,288z"/>
<path style="fill:#F2EDEC;" d="M152,32C79.728,32,20.622,88.374,16.258,159.548c-0.281,4.586,3.399,8.452,7.994,8.452h255.495
	c4.595,0,8.275-3.865,7.994-8.452C283.378,88.374,224.272,32,152,32z"/>
<g>
	<path style="fill:#F56C6C;" d="M64,168h56c0-75.111,14.327-136,32-136C103.399,32,64,92.889,64,168z"/>
	<path style="fill:#F56C6C;" d="M152,32c17.673,0,32,60.889,32,136h56C240,92.889,200.601,32,152,32z"/>
</g>
<path style="fill:#7A463D;" d="M423.992,328.001c-1.448,0-2.914-0.393-4.232-1.217c-3.746-2.342-4.886-7.277-2.544-11.024l40-64
	c1.462-2.339,4.025-3.76,6.784-3.76h32c4.418,0,8,3.582,8,8c0,4.418-3.582,8-8,8h-27.566l-37.649,60.24
	C429.267,326.668,426.659,328.001,423.992,328.001z"/>
<path style="fill:#956B64;" d="M400,248H240c-4.418,0-8,3.582-8,8s3.582,8,8,8h16v16c0,4.418,3.582,8,8,8s8-3.582,8-8v-16h40v16
	c0,4.418,3.582,8,8,8s8-3.582,8-8v-16h40v16c0,4.418,3.582,8,8,8s8-3.582,8-8v-16h16c4.418,0,8-3.582,8-8S404.418,248,400,248z"/>
<g>
	<path style="fill:#D7C8C5;" d="M320,232c-2.048,0-4.095-0.781-5.657-2.343c-3.124-3.125-3.124-8.189,0-11.314
		c0.19-0.189,0.341-0.354,0.46-0.493c-0.46-0.708-1.245-1.699-1.816-2.42c-3.667-4.63-12.256-15.474,1.356-29.087
		c3.125-3.123,8.189-3.123,11.314,0c3.124,3.125,3.124,8.189,0,11.314c-2.366,2.365-2.764,3.688-2.735,3.89
		c0.112,0.799,1.613,2.694,2.607,3.948c2.936,3.707,10.735,13.554,0.128,24.162C324.095,231.219,322.048,232,320,232z"/>
	<path style="fill:#D7C8C5;" d="M357.08,232c-3.492,0-6.667-2.359-7.666-5.706c-0.431-1.446-0.442-3.003-0.037-4.456
		c0.457-1.642,1.43-2.728,2.506-3.989c-0.46-0.708-1.245-1.699-1.816-2.42c-3.667-4.63-12.256-15.474,1.356-29.087
		c3.125-3.123,8.189-3.123,11.314,0c3.124,3.125,3.124,8.189,0,11.314c-2.366,2.365-2.764,3.688-2.735,3.89
		c0.112,0.799,1.613,2.694,2.607,3.948c2.936,3.707,10.735,13.554,0.128,24.162C361.175,231.219,359.128,232,357.08,232z"/>
	<path style="fill:#D7C8C5;" d="M277.08,232c-2.048,0-4.095-0.781-5.657-2.343c-3.124-3.125-3.124-8.189,0-11.314
		c0.19-0.189,0.341-0.354,0.46-0.493c-0.46-0.708-1.245-1.699-1.816-2.42c-3.667-4.63-12.256-15.474,1.356-29.087
		c3.125-3.123,8.189-3.123,11.314,0c3.124,3.125,3.124,8.189,0,11.314c-2.366,2.365-2.764,3.688-2.735,3.89
		c0.112,0.799,1.613,2.694,2.607,3.948c2.936,3.707,10.735,13.554,0.128,24.162C281.175,231.219,279.128,232,277.08,232z"/>
	<path style="fill:#D7C8C5;" d="M200,248H96c-4.418,0-8,3.582-8,8v32c0,4.418,3.582,8,8,8h104c4.418,0,8-3.582,8-8v-32
		C208,251.582,204.418,248,200,248z"/>
</g>
<path style="fill:#CAB5B1;" d="M112,288v-32c0-4.418,3.582-8,8-8H96c-4.418,0-8,3.582-8,8v32c0,4.418,3.582,8,8,8h24
	C115.582,296,112,292.418,112,288z"/>
<g>
	<path style="fill:#956B64;" d="M40,288c-4.418,0-8-3.582-8-8v-16c0-4.418,3.582-8,8-8s8,3.582,8,8v16C48,284.418,44.418,288,40,288
		z"/>
	<path style="fill:#956B64;" d="M64,288c-4.418,0-8-3.582-8-8v-16c0-4.418,3.582-8,8-8s8,3.582,8,8v16C72,284.418,68.418,288,64,288
		z"/>
</g>
<path style="fill:#FBDC40;" d="M424,280H16c-4.418,0-8,3.582-8,8v152c0,4.418,3.582,8,8,8h408c4.418,0,8-3.582,8-8V288
	C432,283.582,428.418,280,424,280z"/>
<path style="fill:#FAD000;" d="M32,440V288c0-4.418,3.582-8,8-8H16c-4.418,0-8,3.582-8,8v152c0,4.418,3.582,8,8,8h24
	C35.582,448,32,444.418,32,440z"/>
<path style="fill:#FBA761;" d="M424,280H16c-4.418,0-8,3.582-8,8v24h424v-24C432,283.582,428.418,280,424,280z"/>
<path style="fill:#FA892D;" d="M40,280H16c-4.418,0-8,3.582-8,8v24h24v-24C32,283.582,35.582,280,40,280z"/>
<path style="fill:#7A463D;" d="M320,368c-39.701,0-72,32.299-72,72s32.299,72,72,72s72-32.299,72-72S359.701,368,320,368z
	 M364.833,473.519L339.314,448h36.105C374.058,457.473,370.327,466.19,364.833,473.519z M328,384.581
	c9.473,1.361,18.19,5.093,25.519,10.586L328,420.686V384.581z M312,420.686l-25.519-25.519c7.329-5.493,16.046-9.225,25.519-10.586
	V420.686z M312,495.419c-9.473-1.361-18.19-5.093-25.519-10.586L312,459.314V495.419z M328,459.314l25.519,25.519
	c-7.329,5.493-16.046,9.225-25.519,10.586V459.314z M375.419,432h-36.105l25.519-25.519C370.327,413.81,374.058,422.527,375.419,432
	z M275.167,406.481L300.686,432h-36.105C265.942,422.527,269.673,413.81,275.167,406.481z M264.581,448h36.105l-25.519,25.519
	C269.673,466.19,265.942,457.473,264.581,448z"/>
<path style="fill:#F79191;" d="M320,408c-17.645,0-32,14.355-32,32s14.355,32,32,32s32-14.355,32-32S337.645,408,320,408z"/>
<path style="fill:#F56C6C;" d="M320,424c-8.822,0-16,7.178-16,16s7.178,16,16,16s16-7.178,16-16S328.822,424,320,424z"/>
<path style="fill:#F79191;" d="M96,448c-17.645,0-32,14.355-32,32s14.355,32,32,32s32-14.355,32-32S113.645,448,96,448z"/>
<path style="fill:#F56C6C;" d="M96,464c-8.822,0-16,7.178-16,16s7.178,16,16,16s16-7.178,16-16S104.822,464,96,464z"/>
<path style="fill:#7A463D;" d="M96,488c-4.418,0-8-3.582-8-8v-56c0-4.418,3.582-8,8-8s8,3.582,8,8v56
	C104,484.418,100.418,488,96,488z"/>
<g>
	<path style="fill:#F56C6C;" d="M200,312h-64c-2.95,0-5.661,1.624-7.054,4.226c-1.392,2.601-1.239,5.757,0.397,8.212l32,48
		c3.112,4.669,10.201,4.669,13.313,0l32-48c1.637-2.455,1.789-5.611,0.397-8.212C205.661,313.624,202.95,312,200,312z"/>
	<path style="fill:#F56C6C;" d="M303.054,316.226C301.661,313.624,298.95,312,296,312h-64c-2.95,0-5.661,1.624-7.054,4.226
		c-1.392,2.601-1.239,5.757,0.397,8.212l32,48c3.112,4.669,10.201,4.669,13.313,0l32-48
		C304.293,321.982,304.445,318.826,303.054,316.226z"/>
	<path style="fill:#F56C6C;" d="M104,312H40c-2.95,0-5.661,1.624-7.054,4.226c-1.392,2.601-1.239,5.757,0.397,8.212l32,48
		c3.112,4.669,10.201,4.669,13.313,0l32-48c1.637-2.455,1.789-5.611,0.397-8.212C109.661,313.624,106.95,312,104,312z"/>
</g>
<rect x="8" y="312" style="fill:#DB4D4D;" width="424" height="16"/>
<g>
</g>
<g>
</g>
<g>
</g>
<g>
</g>
<g>
</g>
<g>
</g>
<g>
</g>
<g>
</g>
<g>
</g>
<g>
</g>
<g>
</g>
<g>
</g>
<g>
</g>
<g>
</g>
<g>
</g>
</svg>
